<svg xmlns="http://www.w3.org/2000/svg" viewBox="0 0 1200 630" fill="none">
  <rect width="1200" height="630" fill="#1E293B"/>

  <circle cx="150" cy="130" r="150" fill="#38BDF8" opacity="0.05"/>
  <circle cx="1060" cy="520" r="170" fill="#06C362" opacity="0.06"/>

  <rect x="90" y="110" width="480" height="410" rx="16" fill="#0F172A" stroke="#334155" stroke-width="2"/>
  <text x="126" y="160" fill="#F8FAFC" font-family="sans-serif" font-weight="bold" font-size="24">Behind the Model</text>
  <g stroke="#334155" stroke-width="2">
    <line x1="126" y1="196" x2="500" y2="196"/>
    <line x1="126" y1="228" x2="500" y2="228"/>
    <line x1="126" y1="260" x2="420" y2="260"/>
  </g>
  <g stroke="#475569" stroke-width="2">
    <line x1="126" y1="310" x2="500" y2="310"/>
    <line x1="126" y1="342" x2="500" y2="342"/>
    <line x1="126" y1="374" x2="460" y2="374"/>
  </g>
  <g stroke="#475569" stroke-width="2">
    <line x1="126" y1="424" x2="500" y2="424"/>
    <line x1="126" y1="456" x2="500" y2="456"/>
    <line x1="126" y1="488" x2="380" y2="488"/>
  </g>

  <rect x="630" y="110" width="480" height="410" rx="16" fill="#0F172A" stroke="#334155" stroke-width="2"/>
  <text x="666" y="150" fill="#94A3B8" font-family="sans-serif" font-size="14">Subscriber Churn Risk Trend</text>
  <line x1="666" y1="420" x2="666" y2="180" stroke="#334155" stroke-width="2"/>
  <line x1="666" y1="420" x2="1070" y2="420" stroke="#334155" stroke-width="2"/>
  <polyline points="666,300 730,320 794,270 858,290 922,230 986,250 1050,210" fill="none" stroke="#38BDF8" stroke-width="4" stroke-linecap="round" stroke-linejoin="round"/>
  <path d="M666 300 730 320 794 270 858 290 922 230 986 250 1050 210 1050 420 666 420 Z" fill="#06C362" opacity="0.08"/>
  <g fill="#06C362">
    <circle cx="666" cy="300" r="5"/>
    <circle cx="730" cy="320" r="5"/>
    <circle cx="794" cy="270" r="5"/>
    <circle cx="858" cy="290" r="5"/>
    <circle cx="922" cy="230" r="5"/>
    <circle cx="986" cy="250" r="5"/>
    <circle cx="1050" cy="210" r="5"/>
  </g>
  <rect x="900" y="440" width="150" height="60" rx="10" fill="#06C362" opacity="0.12" stroke="#06C362" stroke-width="1.5"/>
  <text x="920" y="478" fill="#06C362" font-family="sans-serif" font-weight="bold" font-size="24">-32%</text>
</svg>
