<svg xmlns="http://www.w3.org/2000/svg" viewBox="0 0 1200 620" fill="none">
  <rect width="1200" height="620" fill="#1E293B"/>
  <rect x="0" y="0" width="1200" height="56" fill="#0F172A"/>
  <circle cx="32" cy="28" r="7" fill="#334155"/>
  <circle cx="56" cy="28" r="7" fill="#334155"/>
  <circle cx="80" cy="28" r="7" fill="#334155"/>

  <rect x="48" y="96" width="560" height="260" rx="12" fill="#0F172A" stroke="#334155" stroke-width="2"/>
  <text x="72" y="132" fill="#94A3B8" font-family="sans-serif" font-size="16">Source System Reconciliation</text>
  <g stroke="#334155" stroke-width="2">
    <line x1="150" y1="180" x2="290" y2="230"/>
    <line x1="430" y1="180" x2="290" y2="230"/>
    <line x1="150" y1="300" x2="290" y2="230"/>
    <line x1="430" y1="300" x2="290" y2="230"/>
  </g>
  <g>
    <circle cx="150" cy="180" r="24" fill="#1E293B" stroke="#38BDF8" stroke-width="3"/>
    <circle cx="430" cy="180" r="24" fill="#1E293B" stroke="#38BDF8" stroke-width="3"/>
    <circle cx="150" cy="300" r="24" fill="#1E293B" stroke="#38BDF8" stroke-width="3"/>
    <circle cx="430" cy="300" r="24" fill="#1E293B" stroke="#38BDF8" stroke-width="3"/>
    <circle cx="290" cy="230" r="36" fill="#06C362" opacity="0.15" stroke="#06C362" stroke-width="3"/>
  </g>
  <path d="M276 230l10 10 20-24" stroke="#06C362" stroke-width="4" stroke-linecap="round" stroke-linejoin="round" fill="none"/>

  <rect x="632" y="96" width="264" height="122" rx="12" fill="#0F172A" stroke="#334155" stroke-width="2"/>
  <text x="656" y="132" fill="#94A3B8" font-family="sans-serif" font-size="14">Faster Reporting</text>
  <text x="656" y="176" fill="#06C362" font-family="sans-serif" font-weight="bold" font-size="34">70%</text>

  <rect x="920" y="96" width="232" height="122" rx="12" fill="#0F172A" stroke="#334155" stroke-width="2"/>
  <text x="944" y="132" fill="#94A3B8" font-family="sans-serif" font-size="14">Systems</text>
  <text x="944" y="176" fill="#38BDF8" font-family="sans-serif" font-weight="bold" font-size="34">15+</text>

  <rect x="632" y="234" width="520" height="122" rx="12" fill="#0F172A" stroke="#334155" stroke-width="2"/>
  <text x="656" y="266" fill="#94A3B8" font-family="sans-serif" font-size="14">Audit-Ready Reports</text>
  <g fill="#1E293B" stroke="#334155" stroke-width="1.5">
    <rect x="656" y="286" width="464" height="48" rx="6"/>
  </g>
  <g stroke="#06C362" stroke-width="4" fill="none" stroke-linecap="round" stroke-linejoin="round">
    <polyline points="676,310 686,320 704,296"/>
  </g>
  <text x="720" y="316" fill="#CBD5E1" font-family="sans-serif" font-size="14">Reconciled &amp; verified</text>

  <rect x="48" y="380" width="1104" height="180" rx="12" fill="#0F172A" stroke="#334155" stroke-width="2"/>
  <text x="72" y="416" fill="#94A3B8" font-family="sans-serif" font-size="14">Anomaly Review Queue</text>
  <g fill="#1E293B" stroke="#334155" stroke-width="1.5">
    <rect x="72" y="436" width="240" height="96" rx="8"/>
    <rect x="336" y="436" width="240" height="96" rx="8"/>
    <rect x="600" y="436" width="240" height="96" rx="8"/>
    <rect x="864" y="436" width="240" height="96" rx="8"/>
  </g>
  <g fill="#38BDF8">
    <circle cx="112" cy="484" r="6"/>
    <circle cx="376" cy="484" r="6"/>
    <circle cx="640" cy="484" r="6"/>
    <circle cx="904" cy="484" r="6"/>
  </g>
</svg>
