<svg xmlns="http://www.w3.org/2000/svg" viewBox="0 0 1200 620" fill="none">
  <rect width="1200" height="620" fill="#1E293B"/>
  <rect x="0" y="0" width="1200" height="56" fill="#0F172A"/>
  <circle cx="32" cy="28" r="7" fill="#334155"/>
  <circle cx="56" cy="28" r="7" fill="#334155"/>
  <circle cx="80" cy="28" r="7" fill="#334155"/>

  <rect x="48" y="96" width="560" height="260" rx="12" fill="#0F172A" stroke="#334155" stroke-width="2"/>
  <text x="72" y="132" fill="#94A3B8" font-family="sans-serif" font-size="16">Demand Forecast vs. Actuals</text>
  <line x1="72" y1="310" x2="72" y2="160" stroke="#334155" stroke-width="2"/>
  <line x1="72" y1="310" x2="580" y2="310" stroke="#334155" stroke-width="2"/>
  <g fill="#38BDF8">
    <rect x="96" y="240" width="34" height="70" rx="4"/>
    <rect x="150" y="210" width="34" height="100" rx="4"/>
    <rect x="204" y="225" width="34" height="85" rx="4"/>
    <rect x="258" y="195" width="34" height="115" rx="4"/>
  </g>
  <g fill="#06C362">
    <rect x="330" y="180" width="34" height="130" rx="4"/>
    <rect x="384" y="160" width="34" height="150" rx="4"/>
    <rect x="438" y="185" width="34" height="125" rx="4"/>
    <rect x="492" y="150" width="34" height="160" rx="4"/>
  </g>
  <line x1="96" y1="230" x2="526" y2="140" stroke="#F8FAFC" stroke-width="2" stroke-dasharray="6 6" opacity="0.5"/>

  <rect x="632" y="96" width="264" height="122" rx="12" fill="#0F172A" stroke="#334155" stroke-width="2"/>
  <text x="656" y="132" fill="#94A3B8" font-family="sans-serif" font-size="14">Excess Inventory</text>
  <text x="656" y="176" fill="#06C362" font-family="sans-serif" font-weight="bold" font-size="34">-24%</text>

  <rect x="920" y="96" width="232" height="122" rx="12" fill="#0F172A" stroke="#334155" stroke-width="2"/>
  <text x="944" y="132" fill="#94A3B8" font-family="sans-serif" font-size="14">Stores Live</text>
  <text x="944" y="176" fill="#38BDF8" font-family="sans-serif" font-weight="bold" font-size="34">120</text>

  <rect x="632" y="234" width="520" height="122" rx="12" fill="#0F172A" stroke="#334155" stroke-width="2"/>
  <text x="656" y="266" fill="#94A3B8" font-family="sans-serif" font-size="14">Store Network Coverage</text>
  <g fill="#38BDF8">
    <circle cx="672" cy="310" r="6"/>
    <circle cx="716" cy="300" r="6"/>
    <circle cx="760" cy="316" r="6"/>
    <circle cx="804" cy="296" r="6"/>
    <circle cx="848" cy="308" r="6"/>
    <circle cx="892" cy="292" r="6"/>
    <circle cx="936" cy="312" r="6"/>
    <circle cx="980" cy="300" r="6"/>
    <circle cx="1024" cy="306" r="6"/>
    <circle cx="1068" cy="294" r="6"/>
    <circle cx="1112" cy="310" r="6"/>
  </g>

  <rect x="48" y="380" width="1104" height="180" rx="12" fill="#0F172A" stroke="#334155" stroke-width="2"/>
  <text x="72" y="416" fill="#94A3B8" font-family="sans-serif" font-size="14">SKU-Level Forecast Accuracy</text>
  <g fill="#1E293B" stroke="#334155" stroke-width="1.5">
    <rect x="72" y="436" width="240" height="96" rx="8"/>
    <rect x="336" y="436" width="240" height="96" rx="8"/>
    <rect x="600" y="436" width="240" height="96" rx="8"/>
    <rect x="864" y="436" width="240" height="96" rx="8"/>
  </g>
  <g stroke="#06C362" stroke-width="4" fill="none" stroke-linecap="round">
    <polyline points="96,500 112,484 140,510"/>
    <polyline points="360,500 376,484 404,510"/>
    <polyline points="624,500 640,484 668,510"/>
    <polyline points="888,500 904,484 932,510"/>
  </g>
</svg>
