<svg xmlns="http://www.w3.org/2000/svg" viewBox="0 0 1200 620" fill="none">
  <rect width="1200" height="620" fill="#1E293B"/>
  <rect x="0" y="0" width="1200" height="56" fill="#0F172A"/>
  <circle cx="32" cy="28" r="7" fill="#334155"/>
  <circle cx="56" cy="28" r="7" fill="#334155"/>
  <circle cx="80" cy="28" r="7" fill="#334155"/>

  <rect x="48" y="96" width="520" height="260" rx="12" fill="#0F172A" stroke="#334155" stroke-width="2"/>
  <text x="72" y="132" fill="#94A3B8" font-family="sans-serif" font-size="16">Churn Risk — Last 90 Days</text>
  <line x1="72" y1="300" x2="72" y2="160" stroke="#334155" stroke-width="2"/>
  <line x1="72" y1="300" x2="540" y2="300" stroke="#334155" stroke-width="2"/>
  <polyline points="72,260 140,270 210,240 280,255 350,220 420,235 490,200 540,210" fill="none" stroke="#38BDF8" stroke-width="4" stroke-linecap="round" stroke-linejoin="round"/>
  <path d="M72 260 140 270 210 240 280 255 350 220 420 235 490 200 540 210 540 300 72 300 Z" fill="#38BDF8" opacity="0.08"/>

  <rect x="592" y="96" width="264" height="122" rx="12" fill="#0F172A" stroke="#334155" stroke-width="2"/>
  <text x="616" y="132" fill="#94A3B8" font-family="sans-serif" font-size="14">Churn Reduction</text>
  <text x="616" y="176" fill="#06C362" font-family="sans-serif" font-weight="bold" font-size="34">32%</text>

  <rect x="880" y="96" width="272" height="122" rx="12" fill="#0F172A" stroke="#334155" stroke-width="2"/>
  <text x="904" y="132" fill="#94A3B8" font-family="sans-serif" font-size="14">Events / Day</text>
  <text x="904" y="176" fill="#38BDF8" font-family="sans-serif" font-weight="bold" font-size="34">2.1M</text>

  <rect x="592" y="234" width="560" height="122" rx="12" fill="#0F172A" stroke="#334155" stroke-width="2"/>
  <text x="616" y="266" fill="#94A3B8" font-family="sans-serif" font-size="14">Subscriber Risk Tiers</text>
  <g>
    <rect x="616" y="286" width="180" height="16" rx="8" fill="#06C362"/>
    <rect x="616" y="312" width="340" height="16" rx="8" fill="#38BDF8"/>
    <rect x="616" y="286" width="500" height="16" rx="8" fill="none" stroke="#334155" stroke-width="1" opacity="0"/>
  </g>

  <rect x="48" y="380" width="1104" height="180" rx="12" fill="#0F172A" stroke="#334155" stroke-width="2"/>
  <text x="72" y="416" fill="#94A3B8" font-family="sans-serif" font-size="14">Retention Offer Triggers</text>
  <g fill="#1E293B" stroke="#334155" stroke-width="1.5">
    <rect x="72" y="436" width="240" height="96" rx="8"/>
    <rect x="336" y="436" width="240" height="96" rx="8"/>
    <rect x="600" y="436" width="240" height="96" rx="8"/>
    <rect x="864" y="436" width="240" height="96" rx="8"/>
  </g>
  <g fill="#06C362">
    <circle cx="112" cy="484" r="6"/>
    <circle cx="376" cy="484" r="6"/>
    <circle cx="640" cy="484" r="6"/>
    <circle cx="904" cy="484" r="6"/>
  </g>
</svg>
