<svg xmlns="http://www.w3.org/2000/svg" viewBox="0 0 600 340" fill="none">
  <rect width="600" height="340" fill="#1E293B"/>
  <line x1="60" y1="60" x2="60" y2="280" stroke="#334155" stroke-width="2"/>
  <line x1="60" y1="280" x2="540" y2="280" stroke="#334155" stroke-width="2"/>
  <polyline points="60,120 150,150 240,140 330,190 420,230 510,255" fill="none" stroke="#38BDF8" stroke-width="4" stroke-linecap="round" stroke-linejoin="round"/>
  <polyline points="60,120 150,150 240,140 330,190 420,230 510,255" fill="none" stroke="#38BDF8" stroke-width="4" stroke-linecap="round" stroke-linejoin="round" opacity="0.0"/>
  <g fill="#06C362">
    <circle cx="60" cy="120" r="5"/>
    <circle cx="150" cy="150" r="5"/>
    <circle cx="240" cy="140" r="5"/>
    <circle cx="330" cy="190" r="5"/>
    <circle cx="420" cy="230" r="5"/>
    <circle cx="510" cy="255" r="5"/>
  </g>
  <path d="M60 120 150 150 240 140 330 190 420 230 510 255 510 280 60 280 Z" fill="#06C362" opacity="0.08"/>
</svg>
