<svg xmlns="http://www.w3.org/2000/svg" viewBox="0 0 700 500" fill="none">
  <rect width="700" height="500" fill="#1E293B"/>
  <circle cx="580" cy="90" r="120" fill="#38BDF8" opacity="0.05"/>
  <circle cx="90" cy="430" r="100" fill="#06C362" opacity="0.05"/>

  <!-- Cell tower -->
  <g stroke="#94A3B8" stroke-width="4" stroke-linecap="round" stroke-linejoin="round">
    <path d="M110 340 L110 190"/>
    <path d="M85 340 L110 190 L135 340"/>
    <path d="M92 300 L128 300"/>
    <path d="M98 260 L122 260"/>
  </g>
  <circle cx="110" cy="182" r="7" fill="#06C362"/>
  <g stroke="#38BDF8" stroke-width="4" fill="none" stroke-linecap="round">
    <path d="M128 172 a 28 28 0 0 1 0 40"/>
    <path d="M142 158 a 50 50 0 0 1 0 68"/>
    <path d="M156 144 a 74 74 0 0 1 0 96"/>
  </g>

  <!-- Arrow 1 -->
  <path d="M195 250 L255 250" stroke="#475569" stroke-width="3" stroke-linecap="round" stroke-dasharray="2 8"/>
  <path d="M245 240 L260 250 L245 260" stroke="#475569" stroke-width="3" fill="none" stroke-linecap="round" stroke-linejoin="round"/>

  <!-- AI spark -->
  <circle cx="335" cy="250" r="62" fill="#06C362" opacity="0.1" stroke="#06C362" stroke-width="3"/>
  <g fill="#06C362">
    <path d="M335 205 L347 238 L380 250 L347 262 L335 295 L323 262 L290 250 L323 238 Z"/>
  </g>
  <circle cx="390" cy="200" r="6" fill="#38BDF8"/>
  <circle cx="285" cy="300" r="5" fill="#38BDF8"/>

  <!-- Arrow 2 -->
  <path d="M410 250 L455 250" stroke="#475569" stroke-width="3" stroke-linecap="round" stroke-dasharray="2 8"/>
  <path d="M445 240 L460 250 L445 260" stroke="#475569" stroke-width="3" fill="none" stroke-linecap="round" stroke-linejoin="round"/>

  <!-- Report document -->
  <rect x="478" y="108" width="170" height="250" rx="14" fill="#0F172A" stroke="#334155" stroke-width="2"/>
  <rect x="500" y="132" width="126" height="16" rx="4" fill="#38BDF8" opacity="0.6"/>
  <g fill="#475569">
    <rect x="500" y="168" width="126" height="10" rx="4"/>
    <rect x="500" y="188" width="100" height="10" rx="4"/>
    <rect x="500" y="216" width="126" height="10" rx="4"/>
    <rect x="500" y="236" width="80" height="10" rx="4"/>
    <rect x="500" y="264" width="126" height="10" rx="4"/>
    <rect x="500" y="284" width="110" height="10" rx="4"/>
  </g>
  <circle cx="614" cy="336" r="28" fill="#06C362"/>
  <path d="M601 336 l10 10 20-22" stroke="#0F172A" stroke-width="5" stroke-linecap="round" stroke-linejoin="round" fill="none"/>

  <!-- Reviewer -->
  <g>
    <circle cx="540" cy="420" r="20" fill="#CBD5E1"/>
    <path d="M505 470 q35-38 70 0" fill="#CBD5E1"/>
    <g stroke="#06C362" stroke-width="8" stroke-linecap="round">
      <path d="M578 430 l16-18"/>
    </g>
    <circle cx="598" cy="406" r="9" fill="#06C362"/>
  </g>
</svg>
